<?xml version="1.0" encoding="iso-8859-1"?>
<!-- Generator: Adobe Illustrator 19.0.0, SVG Export Plug-In . SVG Version: 6.00 Build 0)  -->
<svg version="1.1" id="Capa_1" xmlns="http://www.w3.org/2000/svg" xmlns:xlink="http://www.w3.org/1999/xlink" x="0px" y="0px"
	 viewBox="0 0 512 512" style="enable-background:new 0 0 512 512;" xml:space="preserve">
<path style="fill:#EF8C33;" d="M506.094,5.906L506.094,5.906c-7.874-7.874-20.64-7.874-28.514,0L215.244,268.242l28.514,28.514
	L506.094,34.419C513.967,26.545,513.967,13.78,506.094,5.906z"/>
<path style="fill:#D87625;" d="M227.895,280.894L490.232,18.557c5.599-5.599,13.665-7.195,20.693-4.831
	c-0.961-2.855-2.557-5.545-4.831-7.82c-7.874-7.874-20.64-7.874-28.514,0L215.244,268.242l28.514,28.514l0,0L227.895,280.894z"/>
<g>
	<path style="fill:#ED3561;" d="M310.7,421.047c-4.368,0-7.908-3.541-7.908-7.908v-20.559c0-4.367,3.54-7.908,7.908-7.908
		s7.908,3.541,7.908,7.908v20.559C318.608,417.506,315.067,421.047,310.7,421.047z"/>
	<path style="fill:#ED3561;" d="M310.7,476.4c-4.368,0-7.908-3.541-7.908-7.908v-20.559c0-4.367,3.54-7.908,7.908-7.908
		s7.908,3.541,7.908,7.908v20.559C318.608,472.859,315.067,476.4,310.7,476.4z"/>
	<path style="fill:#ED3561;" d="M348.656,438.443h-20.559c-4.368,0-7.908-3.541-7.908-7.908s3.54-7.908,7.908-7.908h20.559
		c4.368,0,7.908,3.541,7.908,7.908S353.023,438.443,348.656,438.443z"/>
	<path style="fill:#ED3561;" d="M293.303,438.443h-20.559c-4.368,0-7.908-3.541-7.908-7.908s3.54-7.908,7.908-7.908h20.559
		c4.368,0,7.908,3.541,7.908,7.908S297.67,438.443,293.303,438.443z"/>
	<path style="fill:#ED3561;" d="M150.954,171.697l16.652-3.376c7.861-1.594,7.861-12.829,0-14.423l-16.652-3.376
		c-16.409-3.327-29.234-16.151-32.56-32.56l-3.376-16.652c-1.594-7.861-12.829-7.861-14.423,0l-3.376,16.652
		c-3.327,16.409-16.151,29.234-32.56,32.56l-16.652,3.376c-7.861,1.594-7.861,12.829,0,14.423l16.652,3.376
		c16.409,3.327,29.234,16.151,32.56,32.56l3.376,16.652c1.594,7.861,12.829,7.861,14.423,0l3.376-16.652
		C121.72,187.848,134.545,175.023,150.954,171.697z"/>
	<path style="fill:#ED3561;" d="M21.236,237.987c-7.095,0-10.581-9.101-5.247-13.816c5.415-4.786,14.103-0.085,13.07,7.07
		C28.505,235.074,25.098,237.987,21.236,237.987z"/>
</g>
<path style="fill:#CE2454;" d="M75.019,283.325c-7.045,0-10.53-8.933-5.368-13.719c2.496-2.313,6.307-2.741,9.263-1.069
	c2.929,1.658,4.52,5.115,3.856,8.419C82.037,280.597,78.749,283.325,75.019,283.325z"/>
<path style="fill:#ED3561;" d="M30.735,309.695c-7.12,0-10.589-9.108-5.243-13.827c5.328-4.703,13.993-0.174,13.088,6.902
	C38.082,306.673,34.676,309.695,30.735,309.695z"/>
<path style="fill:#CE2454;" d="M211.046,486.663c-3.301,0-6.327-2.141-7.437-5.243c-1.131-3.163-0.091-6.791,2.544-8.874
	c5.631-4.453,14.06,0.704,12.643,7.759C218.061,483.958,214.772,486.663,211.046,486.663z"/>
<path style="fill:#F9D366;" d="M265.062,369.268C229.382,404.948,137.63,438.119,137.63,512l-22.353-22.363
	c0,0,11.693-49.714,35.174-73.195L89.55,463.91l-18.937-18.937l31.978-51.096l-55.575,27.499l46.086-39.096L37.189,411.55
	L0.001,374.362c73.881,0.011,107.052-91.742,142.732-127.422c20.476-20.487,50.6-10.322,72.552,2.046
	c16.311,9.194,28.11,19.612,28.11,19.612s10.417,11.809,19.622,28.12C275.385,318.668,285.538,348.792,265.062,369.268z"/>
<path style="fill:#ED9237;" d="M243.216,268.453c-2.942-2.256-40.372-29.923-74.629,4.333
	c-35.68,35.691-81.24,115.054-139.495,130.67l-29.09-29.09c73.87,0.011,107.041-91.752,142.732-127.433
	C177.339,212.328,239.495,265.216,243.216,268.453z"/>
<path style="fill:#F9D366;" d="M285.998,256.743l-30.742-30.742c-7.874-7.874-20.642-7.874-28.516,0l-3.98,3.98
	c-7.874,7.874-7.874,20.642,0,28.516l30.742,30.742c7.874,7.874,20.642,7.874,28.516,0l3.98-3.98
	C293.872,277.385,293.872,264.617,285.998,256.743z"/>
<g>
	<path style="fill:#DD8833;" d="M247.117,254.338l3.98-3.98c7.875-7.875,20.642-7.875,28.516,0l6.385,6.385l0,0l-30.742-30.742
		c-7.874-7.875-20.642-7.875-28.516,0l-3.98,3.98c-7.874,7.874-7.874,20.642,0,28.516l24.356,24.356
		C239.243,274.979,239.243,262.212,247.117,254.338z"/>
	<path style="fill:#DD8833;" d="M243.827,348.022c-1.55,1.55-3.574,2.32-5.599,2.32s-4.038-0.77-5.588-2.32
		c-3.089-3.089-3.089-8.098,0-11.187c12.758-12.747,17.408-27.203,13.844-42.956c-1.118-4.924-2.878-9.236-4.576-12.61
		l-18.262,18.262c-1.539,1.55-3.564,2.32-5.588,2.32s-4.049-0.77-5.588-2.32c-3.089-3.089-3.089-8.098,0-11.176l18.294-18.304
		c-11.472-5.789-33.993-12.305-55.608,9.31c-3.079,3.089-8.087,3.089-11.176,0c-3.089-3.089-3.089-8.098,0-11.187
		c18.156-18.156,37.019-20.919,51.306-19.19c16.311,9.194,28.11,19.612,28.11,19.612s10.417,11.809,19.622,28.12
		C264.746,311.003,261.983,329.866,243.827,348.022z"/>
</g>
<g>
</g>
<g>
</g>
<g>
</g>
<g>
</g>
<g>
</g>
<g>
</g>
<g>
</g>
<g>
</g>
<g>
</g>
<g>
</g>
<g>
</g>
<g>
</g>
<g>
</g>
<g>
</g>
<g>
</g>
</svg>
